#
# Wavefront OBJ file: C:\Project\GIT\qtatcx\models\unit\unitminiring.obj
#
# Converted by the PolyTrans geometry converter from Okino Computer Graphics, Inc.
# Date/time of export: 11/21/2018 18:58:32
#
# Bounding box of geometry = (-0.5,0,-0.5) to (0.5,0,0.5).

mtllib unitminiring.mtl

# Coordinates for object 'disc #1'
v  -0.500000 0.0 0.0 
v  -0.482963 0.0 -0.129409 
v  -0.482963 0.0 0.129410 
v  -0.433013 0.0 -0.250000 
v  -0.433013 0.0 0.250000 
v  -0.353553 0.0 -0.353553 
v  -0.353553 0.0 0.353553 
v  -0.250000 0.0 -0.433013 
v  -0.250000 0.0 0.433013 
v  -0.129410 0.0 -0.482963 
v  -0.129409 0.0 0.482963 
v  -0.100000 0.0 0.0 
v  -0.096593 0.0 -0.025882 
v  -0.096593 0.0 0.025882 
v  -0.086603 0.0 -0.050000 
v  -0.086603 0.0 0.050000 
v  -0.070711 0.0 -0.070711 
v  -0.070711 0.0 0.070711 
v  -0.050000 0.0 -0.086603 
v  -0.050000 0.0 0.086603 
v  -0.025882 0.0 -0.096593 
v  -0.025882 0.0 0.096593 
v  0.0 0.0 -0.500000 
v  0.0 0.0 -0.100000 
v  0.0 0.0 0.100000 
v  0.0 0.0 0.500000 
v  0.025882 0.0 0.096593 
v  0.025882 0.0 -0.096593 
v  0.050000 0.0 0.086603 
v  0.050000 0.0 -0.086603 
v  0.070711 0.0 -0.070711 
v  0.070711 0.0 0.070711 
v  0.086603 0.0 -0.050000 
v  0.086603 0.0 0.050000 
v  0.096593 0.0 -0.025882 
v  0.096593 0.0 0.025882 
v  0.100000 0.0 0.0 
v  0.129410 0.0 0.482963 
v  0.129410 0.0 -0.482963 
v  0.250000 0.0 0.433013 
v  0.250000 0.0 -0.433013 
v  0.353553 0.0 -0.353553 
v  0.353554 0.0 0.353553 
v  0.433013 0.0 -0.250000 
v  0.433013 0.0 0.250000 
v  0.482963 0.0 -0.129410 
v  0.482963 0.0 0.129409 
v  0.500000 0.0 0.0 
# 48 vertices

vt 0.0 0.0 0.0
vt 0.0 1.000000 0.0
vt 0.041667 0.0 0.0
vt 0.041667 1.000000 0.0
vt 0.083333 0.0 0.0
vt 0.083333 1.000000 0.0
vt 0.125000 0.0 0.0
vt 0.125000 1.000000 0.0
vt 0.166667 0.0 0.0
vt 0.166667 1.000000 0.0
vt 0.208333 0.0 0.0
vt 0.208333 1.000000 0.0
vt 0.250000 0.0 0.0
vt 0.250000 1.000000 0.0
vt 0.291667 0.0 0.0
vt 0.291667 1.000000 0.0
vt 0.333333 0.0 0.0
vt 0.333333 1.000000 0.0
vt 0.375000 0.0 0.0
vt 0.375000 1.000000 0.0
vt 0.416667 0.0 0.0
vt 0.416667 1.000000 0.0
vt 0.458333 0.0 0.0
vt 0.458333 1.000000 0.0
vt 0.500000 0.0 0.0
vt 0.500000 1.000000 0.0
vt 0.541667 0.0 0.0
vt 0.541667 1.000000 0.0
vt 0.583333 0.0 0.0
vt 0.583333 1.000000 0.0
vt 0.625000 0.0 0.0
vt 0.625000 1.000000 0.0
vt 0.666667 0.0 0.0
vt 0.666667 1.000000 0.0
vt 0.708333 0.0 0.0
vt 0.708333 1.000000 0.0
vt 0.750000 0.0 0.0
vt 0.750000 1.000000 0.0
vt 0.791667 0.0 0.0
vt 0.791667 1.000000 0.0
vt 0.833333 0.0 0.0
vt 0.833333 1.000000 0.0
vt 0.875000 0.0 0.0
vt 0.875000 1.000000 0.0
vt 0.916667 0.0 0.0
vt 0.916667 1.000000 0.0
vt 0.958333 0.0 0.0
vt 0.958333 1.000000 0.0
vt 1.000000 0.0 0.0
vt 1.000000 1.000000 0.0
# 50 texture vertices

vn  0.0 1.0 0.0 
# 1 normals

usemtl default

o disc__1_0
g disc__1_0

s off
f 37/2/1 48/1/1 46/3/1
f 37/2/1 46/3/1 35/4/1
f 35/4/1 46/3/1 44/5/1
f 35/4/1 44/5/1 33/6/1
f 33/6/1 44/5/1 42/7/1
f 33/6/1 42/7/1 31/8/1
f 31/8/1 42/7/1 41/9/1
f 31/8/1 41/9/1 30/10/1
f 30/10/1 41/9/1 39/11/1
f 30/10/1 39/11/1 28/12/1
f 28/12/1 39/11/1 23/13/1
f 28/12/1 23/13/1 24/14/1
f 24/14/1 23/13/1 10/15/1
f 24/14/1 10/15/1 21/16/1
f 21/16/1 10/15/1 8/17/1
f 21/16/1 8/17/1 19/18/1
f 19/18/1 8/17/1 6/19/1
f 19/18/1 6/19/1 17/20/1
f 17/20/1 6/19/1 4/21/1
f 17/20/1 4/21/1 15/22/1
f 15/22/1 4/21/1 2/23/1
f 15/22/1 2/23/1 13/24/1
f 13/24/1 2/23/1 1/25/1
f 13/24/1 1/25/1 12/26/1
f 12/26/1 1/25/1 3/27/1
f 12/26/1 3/27/1 14/28/1
f 14/28/1 3/27/1 5/29/1
f 14/28/1 5/29/1 16/30/1
f 16/30/1 5/29/1 7/31/1
f 16/30/1 7/31/1 18/32/1
f 18/32/1 7/31/1 9/33/1
f 18/32/1 9/33/1 20/34/1
f 20/34/1 9/33/1 11/35/1
f 20/34/1 11/35/1 22/36/1
f 22/36/1 11/35/1 26/37/1
f 22/36/1 26/37/1 25/38/1
f 25/38/1 26/37/1 38/39/1
f 25/38/1 38/39/1 27/40/1
f 27/40/1 38/39/1 40/41/1
f 27/40/1 40/41/1 29/42/1
f 29/42/1 40/41/1 43/43/1
f 29/42/1 43/43/1 32/44/1
f 32/44/1 43/43/1 45/45/1
f 32/44/1 45/45/1 34/46/1
f 34/46/1 45/45/1 47/47/1
f 34/46/1 47/47/1 36/48/1
f 36/48/1 47/47/1 48/49/1
f 36/48/1 48/49/1 37/50/1
# 48 polygons
