#
# Wavefront OBJ file: C:\Project\Models\NuGraf\UnitSquare\unitsquare.obj
#
# Converted by the PolyTrans geometry converter from Okino Computer Graphics, Inc.
# Date/time of export: 08/24/2017 13:59:18
#
# Bounding box of geometry = (-0.5,0,-0.5) to (0.5,0,0.5).

mtllib unitrunway.mtl

# Coordinates for object 'rectangle #1'
v  -0.500000 0.0 -0.500000 
v  -0.500000 0.0 0.500000 
v  0.500000 0.0 -0.500000 
v  0.500000 0.0 0.500000 
# 4 vertices

vt 0.0 0.0 0.0
vt 0.0 1.000000 0.0
vt 1.000000 0.0 0.0
vt 1.000000 1.000000 0.0
# 4 texture vertices

vn  0.0 1.0 0.0 
# 1 normals

usemtl default

o rectangle__1_0
g rectangle__1_0

s off
f 2/1/1 4/3/1 3/4/1
f 2/1/1 3/4/1 1/2/1
# 2 polygons
